<svg xmlns="http://www.w3.org/2000/svg" viewBox="380 40 160 200" width="32" height="32">
<ellipse cx="462.3" cy="133.2" rx="34.2" ry="34.2" fill="#000000"/>
    <path d="M461.7,95.5c1.7,0,3.3,0.1,4.9,0.2c1-2.1,2.6-4.7,4.8-7.2c-0.4-1.5-0.8-3.1-0.8-5.2c0.1-4.8,1.9-7,3-8
      c0.2-0.2,0-0.5-0.2-0.4c-4.3,0.9-11.2,4.8-12.4,13.9c-0.3,2.6-0.2,4.8,0.2,6.7C461.4,95.5,461.5,95.5,461.7,95.5z" fill="#000000"/>
    <path d="M436.2,95.5c0.3,3.4,1.3,6.3,2.2,8.5c5.1-4.2,11.3-7,18.1-8.1c0.4-0.1,0.7-0.1,1.1-0.1c-0.3-3.6,0.4-6.9,1-8.5
      c1.1-3,2.1-7.2,1.5-11.6c-0.5-3.8-2.3-7-10.5-12.1c-6.8-4.2-7.5-11.6-7.5-14.1c0-0.3-0.3-0.4-0.5-0.1c-5.9,8.3-3.9,18.5-0.3,23.9
      c3.7,5.5-0.1,9.8-0.1,9.8S435.6,88.6,436.2,95.5z" fill="#000000"/>
    <path d="M432.1,110.5c1.1-1.4,2.2-2.8,3.5-4c-1-2.1-2.1-5-2.7-8.3c-1.4-0.6-2.9-1.3-4.6-2.7c-3.7-3-4.3-5.9-4.3-7.3
      c0-0.3-0.4-0.3-0.5-0.1c-2,4-3.2,11.8,3.1,18.4C428.5,108.3,430.4,109.6,432.1,110.5z" fill="#000000"/>
    <path d="M488.5,106.1l0.1,0.1c2.6-2.5,5.6-4,7.3-4.5c3-1,6.9-2.8,10-6.1c2.6-2.8,4.1-6.1,3-15.7
      c-0.9-7.9,4.4-13.1,6.3-14.7c0.2-0.2,0.1-0.5-0.2-0.5c-10.2,0.6-16.9,8.5-18.8,14.7c-2,6.3-7.7,6-7.7,6s-8-0.9-13,3.9
      c-2.4,2.3-4.1,4.9-5.2,7C477.1,97.8,483.4,101.1,488.5,106.1z" fill="#000000"/>
    <path d="M411.7,136.2c-4.7,1-7.3-0.3-8.4-1.2c-0.2-0.2-0.5,0.1-0.4,0.3c1.8,4,7.2,9.9,16.3,9c2.6-0.2,4.7-0.9,6.5-1.7
      c-0.4-1.7-0.8-3.5-1-5.3c-2.3-0.5-5.2-1.5-8.1-3.1C415.3,135.1,413.8,135.8,411.7,136.2z" fill="#000000"/>
    <path d="M502.9,112.4c0.9-1.3,2-2.6,3.6-3.9c3.8-2.9,6.7-2.9,8.1-2.6c0.2,0.1,0.4-0.3,0.2-0.4
      c-3.4-2.8-10.8-5.8-18.6-1c-2.2,1.3-3.9,2.8-5.2,4.3c1.2,1.4,2.2,2.8,3.2,4.3C496.5,112.7,499.5,112.3,502.9,112.4z" fill="#000000"/>
    <path d="M402.2,112.1c6.6,0.5,7.6,6.2,7.6,6.2s0.9,8,6.7,11.8c2.8,1.8,5.7,2.9,8,3.6c-0.1-7.3,2-14.2,5.6-20.1
      c-3-2-5.2-4.6-6.1-6.1c-1.6-2.7-4.3-6.1-8.1-8.4c-3.3-2-6.9-2.6-16,0.6c-7.5,2.7-13.8-1.4-15.7-2.9c-0.2-0.2-0.5,0-0.4,0.3
      C386.6,106.9,395.8,111.6,402.2,112.1z" fill="#000000"/>
    <path d="M431.3,167c3.2-1,5.8-2.6,7.8-4.1c-5.5-4.3-9.8-10.2-12.3-16.9c-3.5,1.1-6.8,1.1-8.5,0.9
      c-3.2-0.4-7.5-0.4-11.6,1.1c-3.6,1.4-6.3,3.8-9.5,12.9c-2.6,7.5-9.7,9.9-12.1,10.5c-0.3,0.1-0.3,0.4,0,0.5c9.5,3.9,18.9-0.3,23.3-5
      c4.5-4.8,9.5-2.1,9.5-2.1S424.7,169.2,431.3,167z" fill="#000000"/>
    <path d="M503.8,152c1.5-0.1,3.2-0.1,5.3,0.4c4.6,1.1,6.4,3.4,7.1,4.7c0.1,0.2,0.5,0.1,0.5-0.1
      c0.1-4.4-2.2-12-10.8-15.2c-2.4-0.9-4.6-1.3-6.6-1.3c-0.4,1.8-0.8,3.5-1.4,5.2C499.7,147.2,501.9,149.3,503.8,152z" fill="#000000"/>
    <path d="M548.7,131.8c-6.8-7.6-17.2-7.9-23.2-5.6c-6.2,2.4-9.5-2.3-9.5-2.3s-4.3-6.8-11.2-7.7
      c-3.3-0.4-6.4-0.2-8.7,0.3c2.5,5,3.8,10.4,3.9,16.2c0,1.5,0,3-0.2,4.4c3.6,0.5,6.6,1.9,8.1,2.9c2.7,1.7,6.5,3.7,11,4
      c3.8,0.3,7.3-0.6,14.2-7.5c5.6-5.7,13-4.7,15.4-4.2C548.7,132.3,548.9,132,548.7,131.8z" fill="#000000"/>
    <path d="M507.2,178.3c-5.7-3.3-4.1-8.8-4.1-8.8s2.6-7.6-0.9-13.6c-1.7-2.9-3.9-5.1-5.7-6.7
      c-3,6.4-7.8,11.9-13.7,15.7c1.8,3.1,2.6,6.4,2.8,8.1c0.3,3.2,1.2,7.4,3.7,11.1c2.1,3.2,5.1,5.3,14.7,6.4c7.9,0.9,11.8,7.2,12.9,9.4
      c0.1,0.2,0.5,0.2,0.5-0.1C519,189.8,512.7,181.5,507.2,178.3z" fill="#000000"/>
    <path d="M479.6,166.7c-1.6,0.8-3.2,1.5-4.9,2.1c0,2.3-0.3,5.4-1.2,8.6c1,1.2,2.1,2.5,3,4.4
      c2,4.3,1.3,7.1,0.7,8.5c-0.1,0.2,0.2,0.4,0.4,0.3c3.5-2.7,8-9.2,5.1-17.9C481.8,170.3,480.7,168.3,479.6,166.7z" fill="#000000"/>
    <path d="M444.1,173.8c1.4-2.2,2.3-4.2,2.8-6.1c-1.6-0.7-3.2-1.6-4.7-2.5c-1.8,1.5-4.4,3.1-7.5,4.5
      c-0.3,1.5-0.6,3.2-1.6,5.1c-2.1,4.2-4.8,5.5-6.2,5.8c-0.2,0.1-0.2,0.4,0,0.5C431.2,182,439.1,181.5,444.1,173.8z" fill="#000000"/>
    <path d="M462.9,170.9c-4.4,0.1-8.7-0.6-12.7-2c-1.3,3.4-3.4,6-4.6,7.2c-2.3,2.2-5,5.6-6.4,9.8
      c-1.2,3.7-1,7.3,4.2,15.5c4.3,6.7,1.7,13.7,0.7,16c-0.1,0.2,0.1,0.5,0.4,0.3c9-4.9,11.5-15,10.6-21.4c-1-6.5,4.3-8.7,4.3-8.7
      s7.6-2.7,10-9.2c1.2-3.1,1.6-6.2,1.7-8.6c-1,0.2-2,0.4-3.1,0.6C466.3,170.8,464.6,170.9,462.9,170.9z" fill="#000000"/>
  </svg>